<svg id="_353430_checkbox_pen_edit_pencil_icon" data-name="353430_checkbox_pen_edit_pencil_icon" xmlns="http://www.w3.org/2000/svg" width="12.763" height="12.235" viewBox="0 0 12.763 12.235">
  <path id="Path_623" data-name="Path 623" d="M47.513,9.914l-1.142-1.14a.605.605,0,0,0-.855,0l-.913.911,2,1.993.913-.91A.6.6,0,0,0,47.513,9.914Z" transform="translate(-34.927 -8.597)" fill="#7f8693"/>
  <path id="Path_624" data-name="Path 624" d="M21.922,19.881l2,1.994,5.5-5.491-2-1.994Z" transform="translate(-18.175 -12.876)" fill="#7f8693"/>
  <path id="Path_625" data-name="Path 625" d="M19.068,37.028l-.426,2.418,2.423-.425Z" transform="translate(-15.752 -29.596)" fill="#7f8693"/>
  <path id="Path_626" data-name="Path 626" d="M16.423,25.434H8.893V17.9h5.314l1.31-1.307H8.431a.848.848,0,0,0-.845.845V25.9a.848.848,0,0,0,.845.845h8.453a.848.848,0,0,0,.845-.845V19.852l-1.307,1.3Z" transform="translate(-7.586 -14.506)" fill="#7f8693"/>
</svg>
