<svg xmlns="http://www.w3.org/2000/svg" width="15.294" height="12.235" viewBox="0 0 15.294 12.235">
  <path id="_9111097_list_checklist_icon" data-name="9111097_list_checklist_icon" d="M17.294,13.941V15.47H6.588V13.941Zm0-4.588v1.529H6.588V9.353Zm0-4.588V6.294H6.588V4.765ZM3.529,16.235a1.529,1.529,0,1,1,1.529-1.529A1.529,1.529,0,0,1,3.529,16.235Zm0-4.588a1.529,1.529,0,1,1,1.529-1.529A1.529,1.529,0,0,1,3.529,11.647Zm0-4.588A1.529,1.529,0,1,1,5.059,5.529,1.529,1.529,0,0,1,3.529,7.059Z" transform="translate(-2 -4)" fill="#7f8693" fill-rule="evenodd"/>
</svg>
