<svg id="_x31_30_x2C__sword_x2C__fencing_x2C__sports_x2C__weapon" xmlns="http://www.w3.org/2000/svg" width="12.404" height="12.235" viewBox="0 0 12.404 12.235">
  <g id="XMLID_13813_" transform="translate(0)">
    <path id="XMLID_13814_" d="M88.079,88.051l.944-.927-3-2.949a.162.162,0,0,1,0-.232.169.169,0,0,1,.236,0l3,2.949.944-.927L87,82.815l-2.709-.675.587,2.765Z" transform="translate(-84.238 -82.14)" fill="#7f8693"/>
    <path id="XMLID_13815_" d="M0,0,1.323.012l.02,2.244L.02,2.244Z" transform="translate(6.438 8.461) rotate(-45)" fill="#7f8693"/>
    <path id="XMLID_13816_" d="M83.135,368.09a.886.886,0,0,0-.271.61.783.783,0,0,0,.234.586.813.813,0,0,0,.575.23.914.914,0,0,0,.643-.266l.789-.775-1.18-1.159Z" transform="translate(-82.864 -357.281)" fill="#7f8693"/>
    <path id="XMLID_13817_" d="M368.832,368.7a.885.885,0,0,0-.271-.61l-.789-.775-1.18,1.159.789.775a.913.913,0,0,0,.643.266.813.813,0,0,0,.575-.23A.783.783,0,0,0,368.832,368.7Z" transform="translate(-356.428 -357.281)" fill="#7f8693"/>
    <path id="XMLID_13818_" d="M.006.015,1.66,0,1.654.662,0,.677Z" transform="translate(2.47 10.976) rotate(-135)" fill="#7f8693"/>
    <path id="XMLID_13819_" d="M.006.015,1.66,0,1.654.662,0,.677Z" transform="translate(3.179 10.281) rotate(-135)" fill="#7f8693"/>
    <path id="XMLID_13820_" d="M155.521,82.14l-2.709.675-3.324,3.265L147.127,88.4l-1.719,1.688.944.927,7.2-7.072a.169.169,0,0,1,.236,0,.162.162,0,0,1,0,.232l-7.2,7.072.944.927,7.4-7.269Z" transform="translate(-143.168 -82.14)" fill="#7f8693"/>
    <path id="XMLID_13821_" d="M0,0,1.654.015,1.66.677.006.662Z" transform="translate(8.747 9.802) rotate(-45)" fill="#7f8693"/>
    <path id="XMLID_13822_" d="M0,0,1.654.015,1.66.677.006.662Z" transform="translate(9.455 10.498) rotate(-45)" fill="#7f8693"/>
    <path id="XMLID_13823_" d="M0,0,1.323.012l.02,2.244L.02,2.244Z" transform="translate(10.164 7.947) rotate(135)" fill="#7f8693"/>
  </g>
</svg>
