<svg xmlns="http://www.w3.org/2000/svg" width="24.205" height="17.121" viewBox="0 0 24.205 17.121">
  <g id="treasure-chest_5233099" transform="translate(-9 -21)">
    <path id="Path_537" data-name="Path 537" d="M24.584,74.181v.59H39.344v-.59A4.11,4.11,0,0,1,39.518,73H24.41A4.11,4.11,0,0,1,24.584,74.181Z" transform="translate(-10.861 -36.65)" fill="#edcd90"/>
    <path id="Path_538" data-name="Path 538" d="M62,46.771h6.2a.588.588,0,0,1,.59.59v3.126a4.11,4.11,0,0,1,1.181-.174h.59V45H62Z" transform="translate(-37.355 -16.915)" fill="#edcd90"/>
    <path id="Path_539" data-name="Path 539" d="M10.771,50.488V47.362a.59.59,0,0,1,.59-.59h6.2V45H9v5.313h.59A4.11,4.11,0,0,1,10.771,50.488Z" transform="translate(0 -16.915)" fill="#edcd90"/>
    <path id="Path_540" data-name="Path 540" d="M37.3,58.108V55H31.486a3.537,3.537,0,0,1-6.671,0H19v3.108a4.131,4.131,0,0,1,1.027,1.024h16.25A4.169,4.169,0,0,1,37.3,58.108Z" transform="translate(-7.048 -23.964)" fill="#edcd90"/>
    <path id="Path_541" data-name="Path 541" d="M24.609,26.313a.59.59,0,0,1,.59-.59h5.9a.588.588,0,0,1,.59.59v.59H37.3V21H19v5.9h5.609Z" transform="translate(-7.048)" fill="#edcd90"/>
    <path id="Path_542" data-name="Path 542" d="M44.362,46.313a2.365,2.365,0,0,0,2.362-2.362V41H42v2.952A2.365,2.365,0,0,0,44.362,46.313Zm-.59-2.952a.59.59,0,1,1,1.181,0v.59a.59.59,0,0,1-1.181,0Z" transform="translate(-23.259 -14.096)" fill="#edcd90"/>
    <path id="Path_543" data-name="Path 543" d="M10.771,21H9.886A.886.886,0,0,0,9,21.886V26.9h1.771Z" fill="#edcd90"/>
    <path id="Path_544" data-name="Path 544" d="M85.886,21H85v5.9h1.771V21.886A.884.884,0,0,0,85.886,21Z" transform="translate(-53.566)" fill="#edcd90"/>
    <path id="Path_545" data-name="Path 545" d="M79,69.952v.59h2.952a.59.59,0,0,0,.59-.59V67h-.59A2.955,2.955,0,0,0,79,69.952Z" transform="translate(-49.337 -32.421)" fill="#edcd90"/>
    <path id="Path_546" data-name="Path 546" d="M9.59,67H9v2.952a.592.592,0,0,0,.59.59h2.952v-.59A2.953,2.953,0,0,0,9.59,67Z" transform="translate(0 -32.421)" fill="#edcd90"/>
  </g>
</svg>
