<svg xmlns="http://www.w3.org/2000/svg" width="23.219" height="19.997" viewBox="0 0 23.219 19.997">
  <g id="active-icons" transform="translate(-5 -6.053)">
    <g id="Group_1074" data-name="Group 1074" transform="translate(5 6.05)">
      <path id="Path_606" data-name="Path 606" d="M10.318,17.588a8.242,8.242,0,0,0,1.329.406,15.638,15.638,0,0,1,3.165-1.156,6.469,6.469,0,0,1-.542-.812,6.1,6.1,0,0,1-.826.059A6.232,6.232,0,0,1,10.6,15.4,13.071,13.071,0,0,0,5,17.45v4.916H9.222V20.255H7.111V18.63a12.2,12.2,0,0,1,3.207-1.042Z" transform="translate(-5 -5.532)" fill="#edcd90"/>
      <path id="Path_607" data-name="Path 607" d="M13.222,14.493c.031,0,.059-.008.091-.009a6.207,6.207,0,0,1-.091-1.046,6.322,6.322,0,0,1,.1-1.065c-.033,0-.063.009-.1.009a2.111,2.111,0,1,1,1.745-3.3,6.368,6.368,0,0,1,1.68-1.268,4.218,4.218,0,1,0-3.425,6.675Z" transform="translate(-4.778 -6.05)" fill="#edcd90"/>
      <path id="Path_608" data-name="Path 608" d="M15,13.272A4.222,4.222,0,1,0,19.222,9.05,4.222,4.222,0,0,0,15,13.272Zm4.222-2.111a2.111,2.111,0,1,1-2.111,2.111A2.111,2.111,0,0,1,19.222,11.161Z" transform="translate(-4.446 -5.884)" fill="#edcd90"/>
      <path id="Path_609" data-name="Path 609" d="M22.284,18.4a6.218,6.218,0,0,1-5.682,0A13.076,13.076,0,0,0,11,20.45v4.916H27.887V20.452a13.057,13.057,0,0,0-5.6-2.052Zm3.491,4.856H13.111V21.63a12.2,12.2,0,0,1,3.207-1.042,8.33,8.33,0,0,0,6.25,0,12.127,12.127,0,0,1,3.207,1.043Z" transform="translate(-4.668 -5.366)" fill="#edcd90"/>
    </g>
  </g>
</svg>
