<svg id="_6351903_burger_list_menu_navigation_icon" data-name="6351903_burger_list_menu_navigation_icon" xmlns="http://www.w3.org/2000/svg" width="33.044" height="25.176" viewBox="0 0 33.044 25.176">
  <path id="Path_109" data-name="Path 109" d="M4,7.574A1.574,1.574,0,0,1,5.574,6h29.9a1.574,1.574,0,0,1,0,3.147H5.574A1.574,1.574,0,0,1,4,7.574Z" transform="translate(-4 -6)" fill="#edcd90"/>
  <path id="Path_110" data-name="Path 110" d="M4,14.573A1.574,1.574,0,0,1,5.574,13H22.883a1.574,1.574,0,0,1,0,3.147H5.574A1.574,1.574,0,0,1,4,14.573Z" transform="translate(-4 -1.985)" fill="#edcd90"/>
  <path id="Path_111" data-name="Path 111" d="M5.574,20a1.573,1.573,0,1,0,0,3.147h26.75a1.573,1.573,0,1,0,0-3.147Z" transform="translate(-4 2.03)" fill="#edcd90"/>
</svg>
