<svg xmlns="http://www.w3.org/2000/svg" width="19.875" height="20" viewBox="0 0 19.875 20">
  <g id="Reward_prize" transform="translate(-3.221 -2.609)">
    <path id="Path_610" data-name="Path 610" d="M20.451,4.942A4.075,4.075,0,0,0,16.24,2.656a2.115,2.115,0,0,0-1.8,2.091V7.928H17.5a3.074,3.074,0,0,1,2.948-2.986Z" transform="translate(-7.413 0)" fill="#7f8693"/>
    <path id="Path_611" data-name="Path 611" d="M26.188,14.253H30.5a2.156,2.156,0,0,0-4.31,0Z" transform="translate(-15.182 -6.325)" fill="#7f8693"/>
    <path id="Path_612" data-name="Path 612" d="M35.846,7.928H38.91V4.747a2.115,2.115,0,0,0-1.8-2.091,4.075,4.075,0,0,0-4.211,2.286,3.074,3.074,0,0,1,2.952,2.986Z" transform="translate(-19.615 0)" fill="#7f8693"/>
    <path id="Path_613" data-name="Path 613" d="M9.189,44.362a1.357,1.357,0,0,0,1.357,1.357h3.488V37.568H9.189Z" transform="translate(-3.945 -23.11)" fill="#7f8693"/>
    <path id="Path_614" data-name="Path 614" d="M22.034,21H4.282a1.061,1.061,0,0,0-1.061,1.061v2.655A.984.984,0,0,0,4.2,25.7H22.113a.984.984,0,0,0,.982-.984V22.063A1.061,1.061,0,0,0,22.034,21Z" transform="translate(0 -12.159)" fill="#7f8693"/>
    <path id="Path_615" data-name="Path 615" d="M42.574,45.719H45.73a1.357,1.357,0,0,0,1.357-1.357V37.568H42.574Z" transform="translate(-26.015 -23.11)" fill="#7f8693"/>
    <rect id="Rectangle_1127" data-name="Rectangle 1127" width="4.641" height="8.151" transform="translate(11.003 14.458)" fill="#7f8693"/>
  </g>
</svg>
