<svg xmlns="http://www.w3.org/2000/svg" width="21.242" height="20.002" viewBox="0 0 21.242 20.002">
  <defs>
    <style>
      .cls-1 {
        fill: #7f8693;
      }
    </style>
  </defs>
  <g id="settings" transform="translate(0 0.001)">
    <g id="Group_1076" data-name="Group 1076">
      <path id="Path_619" data-name="Path 619" class="cls-1" d="M42.048,0a2.84,2.84,0,0,1,2.058.827l4.763,4.312.511-.551L51.2,6.237,48.428,9.3,46.609,7.639l.452-.5L42.273,2.8a2.769,2.769,0,0,0-2.064-.68,4.266,4.266,0,0,0-1.57.384Q40.243.093,42.048,0Z" transform="translate(-29.958)"/>
      <rect id="Rectangle_1128" data-name="Rectangle 1128" class="cls-1" width="2.953" height="0.57" transform="translate(17.708 3.808) rotate(-137.845)"/>
      <path id="Path_620" data-name="Path 620" class="cls-1" d="M9.4,50.429,3.583,56.573,6.374,59.1l5.547-6.4Z" transform="translate(-2.778 -39.099)"/>
      <g id="Group_1075" data-name="Group 1075" transform="translate(0 1.864)">
        <path id="Path_621" data-name="Path 621" class="cls-1" d="M46.38,24.133l3.4-3.924-2.2-1.993L44.013,22Z" transform="translate(-34.125 -15.986)"/>
        <path id="Path_622" data-name="Path 622" class="cls-1" d="M18.676,23.335a3.1,3.1,0,0,0,.08-.86,3,3,0,0,0-3.175-2.862,3.43,3.43,0,0,0-.848.152l-3.008-2.712.013-.015L9.347,14.882h0L6.194,12.034a3.284,3.284,0,0,0,.068-.847A3,3,0,0,0,3.1,8.3a3.15,3.15,0,0,0-.86.165l2.432,2.2-2.156,2.4-2.433-2.2a3.107,3.107,0,0,0-.08.86,2.908,2.908,0,0,0,.984,2.091,2.909,2.909,0,0,0,2.178.772,3.184,3.184,0,0,0,.908-.18l1.056.956h0L12,21.56l-.013.014.6.541a3.166,3.166,0,0,0-.089.909,2.935,2.935,0,0,0,.979,2.1,2.9,2.9,0,0,0,2.184.772,3.1,3.1,0,0,0,.848-.164l-2.432-2.2,2.167-2.394Z" transform="translate(0 -8.296)"/>
      </g>
    </g>
  </g>
</svg>
