<svg xmlns="http://www.w3.org/2000/svg" width="507.614" height="470.515" viewBox="0 0 507.614 470.515">
  <g id="sword-loader" transform="translate(-1335 -470)">
    <path id="sword-spin-svgrepo-com" d="M259.738,20.38A234.006,234.006,0,0,0,140.994,51.89C28.566,116.8-10.03,260.837,54.88,373.265s208.947,151.024,321.376,86.113c77.686-44.852,120.106-127.485,117.5-211.363a225.976,225.976,0,0,1-91.082,169.41A216.6,216.6,0,1,1,150.34,68.076,216.353,216.353,0,0,1,446.183,147.35c.648,1.122,1.277,2.25,1.9,3.38.8,2.184-11.884-5.843-11.884-3.38,0,11.29-8.474,12.664-19.764,12.664-6.85,0-.43,14.773-4.136,9.6q-1.145-2.148-2.355-4.276c-.014-.035-.03-.068-.045-.1l-.01,0c-.15-.263-.293-.53-.445-.793A173.765,173.765,0,0,0,260.081,77.607q-2.885-.021-5.773.05a172.751,172.751,0,0,0-82.162,23.2c-82.99,47.914-111.5,154.31-63.584,237.3q4.4,7.608,9.426,14.6l11.854,14.73c53.686,59.734,143.727,75.99,216.017,34.254a173.615,173.615,0,0,0,86.294-137.05c-12.315,44.767-41.423,85.652-83.564,113.128q-5.8,4.1-12.076,7.737a154.908,154.908,0,0,1-190.1-27.633l-6.024-7.147L204.1,325.219c5.73-38.932,156.071-122.322,216.388-174.489,17.029-14.727,53.413,6.482,44.395-9.138l-.4.173q-1.038-1.89-2.118-3.764A235.25,235.25,0,0,0,263.642,20.436q-1.95-.045-3.9-.056Zm.283,75.823a154.833,154.833,0,0,1,133.238,77.582c.19.33.37.66.556.99-34.149,34.536-138.541,90.3-183.609,131.818-15.792,15.614-2.152,5.2-6.1,4.437l7.6,5.574-30.212,8.615-38.105,27.535-9.121-9.4a157.1,157.1,0,0,1-9.518-14.544A155.146,155.146,0,0,1,254.87,96.252q2.58-.067,5.15-.05Z" transform="translate(1311.632 449.624)" fill="#fffcfc"/>
    <path id="croc-sword-svgrepo-com_1_" data-name="croc-sword-svgrepo-com (1)" d="M51.208,22.22C35.679,26.892,25.162,37.047,20.156,53.294c41.542,17.777,77.615,53.275,96.281,94.533L70.266,194l11.4,11.375,122.9-122.9-11.377-11.4L145.764,118.5a190.678,190.678,0,0,1-55.33-38.437A184.752,184.752,0,0,1,51.208,22.218Zm135.58,98.84L158.05,149.8l45.8,46.416,48.807,48.807,49.149,48.508,48.165,48.807,44.888,44.3v-57.5L186.788,121.059Zm-41.1,41.1-24.7,24.723L327.785,393.674h19.182l-7.412-40.926-41.32-7.486-7.165-41-41.345-7.486-7.462-41.345-41.343-7.486-7.486-41.319-41-7.166Z" transform="translate(1365.109 852.959) rotate(-76)" fill="#fff"/>
  </g>
</svg>
